<svg width="36" height="36" viewBox="0 0 36 36" fill="none" xmlns="http://www.w3.org/2000/svg">
<path d="M17.6667 1H28.6667C30.1254 1 31.5243 1.59797 32.5558 2.66237C33.5872 3.72676 34.1667 5.17039 34.1667 6.67567V11.4054H30.5V6.67567C30.5 6.17391 30.3068 5.6927 29.963 5.3379C29.6192 4.98311 29.1529 4.78378 28.6667 4.78378H17.6667V1ZM28.6667 16.1351V18.973H36V22.7567H34.053C33.6586 26.0079 32.2493 29.0382 30.038 31.3894C31.3497 31.9372 32.7517 32.218 34.1667 32.2162H36V36H34.1667C31.592 36.0043 29.062 35.3059 26.8333 33.9757C24.6046 35.3059 22.0747 36.0043 19.5 36H17.6667V32.2162H19.5C20.9593 32.2162 22.3527 31.923 23.6268 31.3894C22.5157 30.2049 21.5992 28.8412 20.9135 27.3521L20.1252 25.6438L23.438 24.0205L24.2245 25.7289C24.8541 27.0946 25.741 28.3172 26.8333 29.3254C28.6937 27.6112 29.9331 25.2946 30.3478 22.7567H17.6667V18.973H25V16.1351H28.6667ZM6.66667 18.973V30.3243C6.66667 30.8261 6.85982 31.3073 7.20364 31.6621C7.54745 32.0169 8.01377 32.2162 8.5 32.2162H13.0833V36H8.5C7.04131 36 5.64236 35.402 4.61091 34.3376C3.57946 33.2732 3 31.8296 3 30.3243V18.973H6.66667Z" fill="#3451B2"/>
<path d="M6.73668 1.49983C7.23183 1.49983 7.69035 1.65434 8.06495 1.91684C7.07924 2.42161 6.17288 3.05688 5.21082 3.60289L5.97375 4.90193C7.17537 4.21941 8.30222 3.36438 9.60531 2.87237C9.96928 2.73587 10.3627 2.69292 10.7482 2.74758C11.1338 2.80225 11.4988 2.95272 11.8087 3.18476C12.1186 3.4168 12.3631 3.72273 12.5192 4.07361C12.6753 4.4245 12.7377 4.80872 12.7005 5.18994C11.7629 4.60267 10.7497 4.14816 9.78842 3.60289L9.02549 4.90193C10.2271 5.58445 11.5447 6.11546 12.6288 6.97949C12.931 7.22114 13.1654 7.53458 13.3099 7.89015C13.4545 8.24571 13.5044 8.63165 13.4549 9.01146C13.4054 9.39126 13.2581 9.75238 13.0271 10.0606C12.796 10.3689 12.4888 10.6141 12.1344 10.7731C12.184 9.68106 12.0772 8.59128 12.0772 7.5H10.5514C10.5514 8.86354 10.7421 10.2518 10.5231 11.6071C10.4613 11.9852 10.3023 12.3415 10.0613 12.6424C9.82025 12.9432 9.50513 13.1786 9.14574 13.3263C8.78634 13.474 8.39456 13.5291 8.00745 13.4865C7.62034 13.4438 7.25071 13.3047 6.93352 13.0824C7.91999 12.5776 8.82712 11.9424 9.78842 11.3971L9.02549 10.0981C7.82386 10.7806 6.69701 11.6356 5.39392 12.1276C5.02996 12.2641 4.63658 12.3071 4.25102 12.2524C3.86546 12.1978 3.50046 12.0473 3.19056 11.8152C2.88066 11.5832 2.63611 11.2773 2.48004 10.9264C2.32398 10.5755 2.26156 10.1913 2.2987 9.81006C3.23711 10.3966 4.24952 10.8511 5.21082 11.3971L5.97375 10.0981C4.77213 9.41555 3.45455 8.88454 2.36965 8.02051C2.06754 7.7788 1.83316 7.46532 1.68867 7.10971C1.54418 6.7541 1.49436 6.36814 1.54394 5.98833C1.59351 5.60851 1.74083 5.24742 1.97197 4.93919C2.2031 4.63097 2.5104 4.38581 2.8648 4.22691C2.81521 5.31894 2.92202 6.40872 2.92202 7.5H4.44789C4.44789 6.13646 4.25715 4.74817 4.47611 3.39288C4.56261 2.86473 4.83763 2.38412 5.25188 2.03722C5.66613 1.69032 6.19251 1.4998 6.73668 1.49983ZM9.63049 1.30633C9.18928 0.801556 8.61941 0.421279 7.97934 0.204519C7.33927 -0.0122405 6.65206 -0.0576768 5.98823 0.0728728C5.3244 0.203422 4.70785 0.505256 4.20186 0.947401C3.69587 1.38955 3.31866 1.95608 3.10894 2.58886C2.44364 2.7121 1.82368 3.00714 1.31267 3.44371C0.801671 3.88028 0.418031 4.44266 0.201126 5.07312C-0.0157785 5.70359 -0.0581371 6.37943 0.0783977 7.03131C0.214932 7.68318 0.525443 8.2876 0.978064 8.78254C0.753894 9.41064 0.703786 10.0861 0.832884 10.7395C0.961982 11.3929 1.26563 12.0008 1.71267 12.5008C2.15971 13.0007 2.73403 13.3747 3.37667 13.5843C4.01931 13.794 4.70713 13.8317 5.36951 13.6937C5.81072 14.1984 6.38059 14.5787 7.02066 14.7955C7.66073 15.0122 8.34794 15.0577 9.01177 14.9271C9.6756 14.7966 10.2921 14.4947 10.7981 14.0526C11.3041 13.6105 11.6813 13.0439 11.8911 12.4111C12.5564 12.2879 13.1763 11.9929 13.6873 11.5563C14.1983 11.1197 14.582 10.5573 14.7989 9.92688C15.0158 9.29641 15.0581 8.62057 14.9216 7.96869C14.7851 7.31682 14.4746 6.7124 14.0219 6.21746C14.2461 5.58936 14.2962 4.91393 14.1671 4.2605C14.038 3.60707 13.7344 2.99919 13.2873 2.49925C12.8403 1.9993 12.266 1.62532 11.6233 1.41568C10.9807 1.20604 10.2929 1.1683 9.63049 1.30633Z" fill="#3451B2"/>
</svg>
