<svg width="38" height="36" viewBox="0 0 38 36" fill="none" xmlns="http://www.w3.org/2000/svg">
<path d="M18.5294 1H30.1765C31.721 1 33.2022 1.59797 34.2943 2.66237C35.3865 3.72676 36 5.17039 36 6.67567V11.4054H32.1176V6.67567C32.1176 6.17391 31.9131 5.6927 31.5491 5.3379C31.1851 4.98311 30.6913 4.78378 30.1765 4.78378H18.5294V1ZM6.88235 18.973V30.3243C6.88235 30.8261 7.08687 31.3073 7.45091 31.6621C7.81495 32.0169 8.3087 32.2162 8.82353 32.2162H13.6765V36H8.82353C7.27903 36 5.7978 35.402 4.70567 34.3376C3.61355 33.2732 3 31.8296 3 30.3243V18.973H6.88235Z" fill="#3451B2"/>
<path d="M7.1858 1.49983C7.71395 1.49983 8.20304 1.65434 8.60262 1.91684C7.55119 2.42161 6.5844 3.05688 5.55821 3.60289L6.372 4.90193C7.65373 4.21941 8.85571 3.36438 10.2457 2.87237C10.6339 2.73587 11.0535 2.69292 11.4648 2.74758C11.876 2.80225 12.2654 2.95272 12.5959 3.18476C12.9265 3.4168 13.1873 3.72273 13.3538 4.07361C13.5203 4.4245 13.5869 4.80872 13.5472 5.18994C12.5471 4.60267 11.4664 4.14816 10.441 3.60289L9.62718 4.90193C10.9089 5.58445 12.3143 6.11546 13.4707 6.97949C13.793 7.22114 14.0431 7.53458 14.1973 7.89015C14.3514 8.24571 14.4047 8.63165 14.3519 9.01146C14.2991 9.39126 14.142 9.75238 13.8955 10.0606C13.6491 10.3689 13.3214 10.6141 12.9434 10.7731C12.9963 9.68106 12.8824 8.59128 12.8824 7.5H11.2548C11.2548 8.86354 11.4582 10.2518 11.2247 11.6071C11.1587 11.9852 10.9891 12.3415 10.732 12.6424C10.4749 12.9432 10.1388 13.1786 9.75545 13.3263C9.3721 13.474 8.95419 13.5291 8.54128 13.4865C8.12836 13.4438 7.73409 13.3047 7.39576 13.0824C8.44799 12.5776 9.4156 11.9424 10.441 11.3971L9.62718 10.0981C8.34546 10.7806 7.14348 11.6356 5.75352 12.1276C5.36529 12.2641 4.94569 12.3071 4.53442 12.2524C4.12316 12.1978 3.73382 12.0473 3.40326 11.8152C3.0727 11.5832 2.81185 11.2773 2.64538 10.9264C2.47891 10.5755 2.41233 10.1913 2.45195 9.81006C3.45292 10.3966 4.53282 10.8511 5.55821 11.3971L6.372 10.0981C5.09027 9.41555 3.68485 8.88454 2.52763 8.02051C2.20538 7.7788 1.95537 7.46532 1.80125 7.10971C1.64712 6.7541 1.59399 6.36814 1.64687 5.98833C1.69975 5.60851 1.85689 5.24742 2.10343 4.93919C2.34997 4.63097 2.67776 4.38581 3.05578 4.22691C3.00289 5.31894 3.11682 6.40872 3.11682 7.5H4.74441C4.74441 6.13646 4.54096 4.74817 4.77452 3.39288C4.86678 2.86473 5.16014 2.38412 5.602 2.03722C6.04387 1.69032 6.60535 1.4998 7.1858 1.49983ZM10.2725 1.30633C9.8019 0.801556 9.19403 0.421279 8.51129 0.204519C7.82855 -0.0122405 7.09553 -0.0576768 6.38744 0.0728728C5.67936 0.203422 5.02171 0.505256 4.48199 0.947401C3.94227 1.38955 3.53991 1.95608 3.3162 2.58886C2.60655 2.7121 1.94525 3.00714 1.40019 3.44371C0.855116 3.88028 0.4459 4.44266 0.214535 5.07312C-0.0168304 5.70359 -0.0620129 6.37943 0.0836242 7.03131C0.229261 7.68318 0.560473 8.2876 1.04327 8.78254C0.804153 9.41064 0.750705 10.0861 0.888409 10.7395C1.02611 11.3929 1.35001 12.0008 1.82685 12.5008C2.30369 13.0007 2.9163 13.3747 3.60178 13.5843C4.28727 13.794 5.02094 13.8317 5.72748 13.6937C6.1981 14.1984 6.80597 14.5787 7.48871 14.7955C8.17145 15.0122 8.90447 15.0577 9.61256 14.9271C10.3206 14.7966 10.9783 14.4947 11.518 14.0526C12.0577 13.6105 12.4601 13.0439 12.6838 12.4111C13.3935 12.2879 14.0547 11.9929 14.5998 11.5563C15.1449 11.1197 15.5541 10.5573 15.7855 9.92688C16.0168 9.29641 16.062 8.62057 15.9164 7.96869C15.7707 7.31682 15.4395 6.7124 14.9567 6.21746C15.1958 5.58936 15.2493 4.91393 15.1116 4.2605C14.9739 3.60707 14.65 2.99919 14.1731 2.49925C13.6963 1.9993 13.0837 1.62532 12.3982 1.41568C11.7127 1.20604 10.9791 1.1683 10.2725 1.30633Z" fill="#3451B2"/>
<path fill-rule="evenodd" clip-rule="evenodd" d="M38 26C38 28.6522 36.9464 31.1957 35.0711 33.0711C33.1957 34.9464 30.6522 36 28 36C25.3478 36 22.8043 34.9464 20.9289 33.0711C19.0536 31.1957 18 28.6522 18 26C18 23.3478 19.0536 20.8043 20.9289 18.9289C22.8043 17.0536 25.3478 16 28 16C30.6522 16 33.1957 17.0536 35.0711 18.9289C36.9464 20.8043 38 23.3478 38 26ZM23.3471 22.25C23.8343 22.25 24.2771 22.5357 24.4771 22.9814L25.1429 24.4571L25.8086 22.98C25.9252 22.7218 26.1268 22.5113 26.3797 22.3836C26.6327 22.256 26.9217 22.2187 27.1987 22.2782C27.4758 22.3376 27.7241 22.4902 27.9024 22.7104C28.0806 22.9306 28.1781 23.2052 28.1786 23.4886V28.8571C28.1786 29.0939 28.0845 29.321 27.9171 29.4885C27.7496 29.6559 27.5225 29.75 27.2857 29.75C27.0489 29.75 26.8218 29.6559 26.6544 29.4885C26.4869 29.321 26.3929 29.0939 26.3929 28.8571V26.0329L26.36 26.1057C26.2546 26.3403 26.0837 26.5395 25.8677 26.6792C25.6518 26.819 25.4001 26.8933 25.1429 26.8933C24.8857 26.8933 24.6339 26.819 24.418 26.6792C24.2021 26.5395 24.0311 26.3403 23.9257 26.1057L23.8929 26.0343V28.8571C23.8929 29.0939 23.7988 29.321 23.6313 29.4885C23.4639 29.6559 23.2368 29.75 23 29.75C22.7632 29.75 22.5361 29.6559 22.3687 29.4885C22.2012 29.321 22.1071 29.0939 22.1071 28.8571V23.49C22.1071 22.8043 22.6629 22.25 23.3471 22.25ZM32.4643 23.1429C32.4643 23.0256 32.4412 22.9095 32.3963 22.8012C32.3515 22.6928 32.2857 22.5944 32.2028 22.5115C32.1199 22.4286 32.0214 22.3628 31.9131 22.318C31.8048 22.2731 31.6887 22.25 31.5714 22.25C31.4542 22.25 31.3381 22.2731 31.2297 22.318C31.1214 22.3628 31.023 22.4286 30.9401 22.5115C30.8572 22.5944 30.7914 22.6928 30.7465 22.8012C30.7017 22.9095 30.6786 23.0256 30.6786 23.1429V26.7143H30.1429C30.0014 26.714 29.8631 26.7558 29.7454 26.8343C29.6277 26.9127 29.5359 27.0244 29.4817 27.1551C29.4276 27.2857 29.4134 27.4295 29.4411 27.5683C29.4688 27.707 29.537 27.8344 29.6371 27.9343L31.0657 29.3629C31.1321 29.4294 31.2109 29.4822 31.2977 29.5182C31.3844 29.5542 31.4775 29.5727 31.5714 29.5727C31.6654 29.5727 31.7584 29.5542 31.8452 29.5182C31.932 29.4822 32.0108 29.4294 32.0771 29.3629L33.5057 27.9343C33.6059 27.8344 33.6741 27.707 33.7018 27.5683C33.7294 27.4295 33.7153 27.2857 33.6611 27.1551C33.607 27.0244 33.5152 26.9127 33.3975 26.8343C33.2798 26.7558 33.1415 26.714 33 26.7143H32.4643V23.1429Z" fill="#3451B2"/>
</svg>
